#!OML:ASF G:\JayActor3\Patient Classification 1\Patient 1\Session 6\male.ASF
:FULLY-SPECIFIED
:DEGREES
1199
root 10.6557 16.6483 -1.86719 26.0394 -61.2696 -6.84839
lowerback 19.111 -1.11037 4.31927
upperback -2.98103 -0.257861 1.38357
thorax -14.2155 -0.401803 -0.81472
lowerneck -7.08304 10.474 10.5465
upperneck -14.6798 11.6181 -20.4774
head -1.09865 5.73303 -7.72567
rclavicle -7.79484e-014 1.4064e-014
rhumerus -9.67687 -21.4765 -71.0777
rradius 72.5104
rwrist 13.5339
rhand -32.2264 -3.70177
rfingers 7.12502
rthumb -5.46734 -33.6112
lclavicle -7.79484e-014 1.4064e-014
lhumerus -18.9872 35.0605 68.1232
lradius 86.8617
lwrist 0.392647
lhand -14.4424 15.2748
lfingers 7.12502
lthumb 11.7025 44.9279
rfemur -42.4622 -4.42975 25.3246
rtibia 37.4428
rfoot -16.9488 -10.8732
rtoes 11.7728
lfemur -34.665 10.7922 -22.9324
ltibia 27.2347
lfoot -12.6963 -2.70782
ltoes 1.2294
1200
root 10.666 16.6469 -1.87892 26.1619 -61.2678 -6.79329
lowerback 19.2375 -1.09751 4.28905
upperback -2.92727 -0.242889 1.3819
thorax -14.2263 -0.392154 -0.803588
lowerneck -7.07824 10.4661 10.5467
upperneck -14.8691 11.5765 -20.5264
head -1.15576 5.71762 -7.75281
rclavicle -5.13858e-014 -5.4467e-014
rhumerus -9.35283 -21.5093 -71.1926
rradius 72.4999
rwrist 13.4497
rhand -32.7802 -3.6293
rfingers 7.12502
rthumb -6.00205 -33.5243
lclavicle -5.13858e-014 -5.4467e-014
lhumerus -18.5191 35.0957 68.411
lradius 86.7802
lwrist 0.272904
lhand -14.8551 14.9988
lfingers 7.12502
lthumb 11.3045 44.6742
rfemur -42.7647 -4.454 25.3566
rtibia 37.5149
rfoot -16.8768 -10.8828
rtoes 11.7351
lfemur -34.9703 10.8042 -22.996
ltibia 27.3163
lfoot -12.64 -2.74717
ltoes 1.27436
1201
root 10.6761 16.6456 -1.89008 26.2929 -61.2656 -6.74058
lowerback 19.3633 -1.08795 4.2699
upperback -2.88342 -0.229818 1.37677
thorax -14.2488 -0.384751 -0.801911
lowerneck -7.07388 10.4593 10.5575
upperneck -15.0284 11.5407 -20.5707
head -1.20302 5.70405 -7.77846
rclavicle 3.77194e-014 -1.11816e-014
rhumerus -9.04174 -21.5385 -71.3148
rradius 72.4824
rwrist 13.3768
rhand -33.3308 -3.55113
rfingers 7.12502
rthumb -6.53361 -33.4303
lclavicle 3.77194e-014 -1.11816e-014
lhumerus -18.062 35.1157 68.6879
lradius 86.6905
lwrist 0.124663
lhand -15.3058 14.6991
lfingers 7.12502
lthumb 10.8698 44.3977
rfemur -43.0732 -4.49447 25.3962
rtibia 37.5851
rfoot -16.7955 -10.8827
rtoes 11.6763
lfemur -35.2826 10.8146 -23.0607
ltibia 27.4027
lfoot -12.5857 -2.78709
ltoes 1.3516
1202
root 10.6861 16.6442 -1.9007 26.4268 -61.2608 -6.68764
lowerback 19.4934 -1.08239 4.26573
upperback -2.85083 -0.218581 1.36536
thorax -14.2873 -0.380105 -0.815077
lowerneck -7.06832 10.4512 10.5748
upperneck -15.1634 11.5072 -20.6096
head -1.24324 5.69076 -7.80238
rclavicle -1.12562e-014 -4.42793e-014
rhumerus -8.75315 -21.5701 -71.4443
rradius 72.4591
rwrist 13.3201
rhand -33.8855 -3.45612
rfingers 7.12502
rthumb -7.06908 -33.3181
lclavicle -1.12562e-014 -4.42793e-014
lhumerus -17.642 35.0971 68.9373
lradius 86.6062
lwrist -0.0313448
lhand -15.7757 14.3799
lfingers 7.12502
lthumb 10.4165 44.1018
rfemur -43.3836 -4.55345 25.4427
rtibia 37.6565
rfoot -16.7114 -10.8645
rtoes 11.6207
lfemur -35.6002 10.8235 -23.1283
ltibia 27.4947
lfoot -12.5344 -2.82239
ltoes 1.40537
1203
root 10.6959 16.6425 -1.91103 26.5638 -61.252 -6.64242
lowerback 19.622 -1.08068 4.27061
upperback -2.81888 -0.210426 1.35347
thorax -14.3258 -0.377659 -0.832999
lowerneck -7.06772 10.445 10.5956
upperneck -15.2773 11.4794 -20.6443
head -1.27588 5.67945 -7.82393
rclavicle -1.85864e-014 9.0447e-015
rhumerus -8.46537 -21.6038 -71.5835
rradius 72.4233
rwrist 13.287
rhand -34.4451 -3.34468
rfingers 7.12502
rthumb -7.60924 -33.1878
lclavicle -1.85864e-014 9.0447e-015
lhumerus -17.252 35.0505 69.1677
lradius 86.5287
lwrist -0.175795
lhand -16.2788 14.0614
lfingers 7.12502
lthumb 9.93118 43.8071
rfemur -43.6884 -4.62462 25.4982
rtibia 37.7294
rfoot -16.6287 -10.8317
rtoes 11.5682
lfemur -35.9167 10.8289 -23.1899
ltibia 27.5947
lfoot -12.4889 -2.85457
ltoes 1.44931
